<svg class="inline-block" fill="#0284c7" version="1.1" viewBox="0 0 215 215" stroke="none" xmlns="http://www.w3.org/2000/svg" xmlns:cc="http://creativecommons.org/ns#" xmlns:dc="http://purl.org/dc/elements/1.1/" xmlns:osb="http://www.openswatchbook.org/uri/2009/osb" xmlns:rdf="http://www.w3.org/1999/02/22-rdf-syntax-ns#">
    <path transform="matrix(1.28 0 0 1.28 13.057 10.462)" d="m121.65 15.95-11.2 11.2q-5.9-4.75-12.8-7.3-5.7-2.35-10.05-3.15v-16.7h-22.8v16.35l-6.9 1.75q-8.1 2.55-16.15 7.5l-11.6-11.65-15.95 15.75 11.8 11.65q-6.1 8.85-8.85 19.65l-0.8 4.55h-16.35v21.65h16.75l2.15 7.45q2.35 7.9 7.3 14.4l-12 11.6 15.35 15.35 12-11.8 6.5 3.95q8.85 4.3 16.75 5.7v16.15h22.8v-16.55q8.05-1.8 15.75-5.7l5.55-3.35 11.4 11.4 16.15-16.15-11.25-11.4q5.1-7.85 7.5-16.9l1.2-4.15h16.1v-21.65h-15.75q-1.55-8.5-4.5-15.35l-3.55-5.9 12-12.05-16.55-16.3m-7.65 58.85q-0.05 15.9-11.25 27.55-11.6 11-27.55 11-16.15 0-27.55-11.4-11.2-10.85-11.2-27.15 0-15.95 11.2-27.55 11.8-11.25 27.55-11.25 15.75 0 27.55 11.25 11.2 11.8 11.25 27.55" stroke-linecap="square" stroke-width="1"/>
    <path transform="matrix(.34872 0 0 .34872 83.818 78.7)" d="m144.75 65.137-94.088 94.088-50.662-50.663v-65.138l50.662 50.663 94.088-94.088v65.137"  stroke-linecap="square" stroke-width="6" />
</svg>
